<svg width="135" height="40" viewBox="0 0 135 40" fill="none" xmlns="http://www.w3.org/2000/svg">
<path d="M130 40H5C2.25 40 0 37.75 0 35V5C0 2.25 2.25 -5.96046e-07 5 -5.96046e-07H130C132.75 -5.96046e-07 135 2.25 135 5V35C135 37.75 132.75 40 130 40Z" fill="black"/>
<path d="M130 -5.96046e-07H5C2.25 -5.96046e-07 0 2.25 0 5V35C0 37.75 2.25 40 5 40H130C132.75 40 135 37.75 135 35V5C135 2.25 132.75 -5.96046e-07 130 -5.96046e-07ZM130 0.799999C132.316 0.799999 134.2 2.6844 134.2 5V35C134.2 37.316 132.316 39.2004 130 39.2004H5C2.6844 39.2004 0.8 37.316 0.8 35V5C0.8 2.6844 2.6844 0.799999 5 0.799999H130Z" fill="#A6A6A6"/>
<path d="M106.936 30H108.802V17.4988H106.936V30ZM123.743 22.002L121.604 27.4219H121.54L119.32 22.002H117.31L120.639 29.5773L118.741 33.791H120.688L125.818 22.002H123.743ZM113.161 28.5801C112.549 28.5801 111.697 28.2746 111.697 27.5184C111.697 26.5535 112.759 26.1836 113.675 26.1836C114.496 26.1836 114.881 26.3605 115.38 26.602C115.235 27.7598 114.238 28.5801 113.161 28.5801V28.5801ZM113.386 21.7285C112.035 21.7285 110.636 22.3238 110.057 23.6426L111.713 24.334C112.067 23.6426 112.726 23.4172 113.418 23.4172C114.383 23.4172 115.364 23.9965 115.38 25.0258V25.1543C115.042 24.9613 114.319 24.6719 113.434 24.6719C111.649 24.6719 109.831 25.6527 109.831 27.4863C109.831 29.159 111.295 30.2367 112.935 30.2367C114.19 30.2367 114.881 29.6738 115.316 29.0145H115.38V29.9793H117.181V25.1863C117.181 22.9672 115.525 21.7285 113.386 21.7285V21.7285ZM101.854 23.5238H99.2V19.2387H101.854C103.249 19.2387 104.041 20.3937 104.041 21.3812C104.041 22.35 103.249 23.5238 101.854 23.5238ZM101.806 17.4988H97.335V30H99.2V25.2637H101.806C103.874 25.2637 105.907 23.7664 105.907 21.3812C105.907 18.9961 103.874 17.4988 101.806 17.4988ZM77.425 28.5824C76.1359 28.5824 75.0566 27.5031 75.0566 26.0207C75.0566 24.5227 76.1359 23.427 77.425 23.427C78.6977 23.427 79.6965 24.5227 79.6965 26.0207C79.6965 27.5031 78.6977 28.5824 77.425 28.5824V28.5824ZM79.5676 22.702H79.5031C79.0844 22.2027 78.2785 21.7516 77.2637 21.7516C75.1371 21.7516 73.1879 23.6203 73.1879 26.0207C73.1879 28.4051 75.1371 30.2578 77.2637 30.2578C78.2785 30.2578 79.0844 29.8066 79.5031 29.2914H79.5676V29.9035C79.5676 31.5309 78.6977 32.4008 77.2961 32.4008C76.1523 32.4008 75.4434 31.5789 75.1531 30.8863L73.5262 31.5629C73.9934 32.6906 75.234 34.0762 77.2961 34.0762C79.4871 34.0762 81.3398 32.7871 81.3398 29.6457V22.0094H79.5676V22.702ZM82.6285 30H84.4973V17.4984H82.6285V30ZM87.2523 25.8758C87.2039 24.2324 88.525 23.3949 89.4754 23.3949C90.217 23.3949 90.845 23.7652 91.054 24.2973L87.2523 25.8758ZM93.052 24.4582C92.698 23.5074 91.618 21.7516 89.4109 21.7516C87.2199 21.7516 85.3996 23.4754 85.3996 26.0047C85.3996 28.3891 87.2039 30.2578 89.6203 30.2578C91.57 30.2578 92.698 29.0656 93.165 28.373L91.715 27.4062C91.232 28.1152 90.571 28.5824 89.6203 28.5824C88.6699 28.5824 87.9934 28.1473 87.5582 27.2937L93.245 24.9414L93.052 24.4582ZM47.7438 23.0566V24.8609H52.0613C51.9324 25.8758 51.5941 26.6168 51.0785 27.1324C50.4504 27.7609 49.4676 28.4535 47.7438 28.4535C45.0855 28.4535 43.0074 26.3109 43.0074 23.6527C43.0074 20.9945 45.0855 18.8516 47.7438 18.8516C49.1777 18.8516 50.2246 19.4156 50.998 20.1406L52.2707 18.868C51.1914 17.8367 49.7574 17.0473 47.7438 17.0473C44.1027 17.0473 41.0418 20.0117 41.0418 23.6527C41.0418 27.2937 44.1027 30.2578 47.7438 30.2578C49.7094 30.2578 51.1914 29.6137 52.3512 28.4051C53.5434 27.2129 53.9141 25.5375 53.9141 24.1844C53.9141 23.7652 53.882 23.3789 53.8172 23.0566H47.7438ZM58.8227 28.5824C57.5336 28.5824 56.4219 27.5191 56.4219 26.0047C56.4219 24.4742 57.5336 23.427 58.8227 23.427C60.1113 23.427 61.223 24.4742 61.223 26.0047C61.223 27.5191 60.1113 28.5824 58.8227 28.5824V28.5824ZM58.8227 21.7516C56.4703 21.7516 54.5531 23.5398 54.5531 26.0047C54.5531 28.4535 56.4703 30.2578 58.8227 30.2578C61.1746 30.2578 63.0918 28.4535 63.0918 26.0047C63.0918 23.5398 61.1746 21.7516 58.8227 21.7516ZM68.1359 28.5824C66.8473 28.5824 65.7355 27.5191 65.7355 26.0047C65.7355 24.4742 66.8473 23.427 68.1359 23.427C69.4246 23.427 70.5363 24.4742 70.5363 26.0047C70.5363 27.5191 69.4246 28.5824 68.1359 28.5824ZM68.1359 21.7516C65.7836 21.7516 63.8668 23.5398 63.8668 26.0047C63.8668 28.4535 65.7836 30.2578 68.1359 30.2578C70.4879 30.2578 72.4051 28.4535 72.4051 26.0047C72.4051 23.5398 70.4879 21.7516 68.1359 21.7516Z" fill="white"/>
<path d="M10.5098 32.3895L10.4355 32.3184C10.1445 32.0105 9.97272 31.5324 9.97272 30.9133V31.059V8.94297C9.97272 8.94097 9.97272 8.93947 9.97272 8.93787C9.97272 8.93977 9.97272 8.94137 9.97272 8.94337V9.08947C9.97272 8.41907 10.173 7.91407 10.5086 7.61127L22.8984 20.0008L10.5098 32.3895ZM9.97272 8.93667C9.97272 8.88157 9.97422 8.82807 9.97702 8.77537C9.97422 8.82767 9.97272 8.88157 9.97272 8.93667ZM9.97702 8.77297C9.97702 8.77227 9.97702 8.77147 9.97732 8.77067C9.97702 8.77147 9.97702 8.77227 9.97702 8.77297ZM9.97732 8.76597C9.97732 8.76557 9.97732 8.76517 9.97732 8.76477C9.97732 8.76517 9.97732 8.76557 9.97732 8.76597Z" fill="url(#paint0_linear)"/>
<path d="M27.0277 24.2784L27.1219 24.2249L32.0148 21.4448C32.4813 21.1796 32.7922 20.8581 32.9473 20.5179C32.7926 20.8581 32.4816 21.18 32.0148 21.4452L27.1219 24.2253L27.0277 24.2784V24.2784ZM27.0289 24.1319L22.8984 20.0007L27.0285 15.8702L32.0148 18.703C32.648 19.0628 33.0035 19.5265 33.0629 20.0003C33.0629 20.0007 33.0629 20.0015 33.0629 20.0022C33.0035 20.4749 32.648 20.939 32.0148 21.2987L27.0289 24.1319" fill="url(#paint1_linear)"/>
<path d="M11.393 32.8613C11.0469 32.8613 10.7449 32.7488 10.5094 32.5363L10.5098 32.5359C10.7453 32.7484 11.0477 32.8613 11.3938 32.8613C11.4238 32.8613 11.4543 32.8605 11.4852 32.859C11.4539 32.8605 11.423 32.8613 11.393 32.8613V32.8613ZM11.3934 32.7148C11.0473 32.7152 10.7453 32.6023 10.5098 32.3898V32.3895L22.8984 20.0008L27.0289 24.132L12.5137 32.3793C12.1121 32.607 11.7316 32.7148 11.3934 32.7148V32.7148ZM10.5063 32.5336C10.4844 32.5137 10.4629 32.4926 10.4418 32.4707L10.5063 32.5336Z" fill="url(#paint2_linear)"/>
<path d="M22.8985 20.0008L10.5087 7.61129C10.7442 7.39919 11.0458 7.28669 11.3915 7.28669C11.7306 7.28669 12.1114 7.39489 12.5138 7.62299L27.0286 15.8703L22.8985 20.0008V20.0008ZM27.122 15.777L12.5138 7.47699C12.1114 7.24879 11.7306 7.14059 11.3915 7.14059C11.3899 7.14059 11.3888 7.14059 11.3872 7.14059C11.3892 7.14059 11.3907 7.14059 11.3931 7.14059C11.7314 7.14059 12.1118 7.24839 12.5138 7.47659L27.122 15.777V15.777Z" fill="url(#paint3_linear)"/>
<path d="M11.4852 32.859C11.7996 32.841 12.1477 32.7328 12.5137 32.5254L27.0277 24.2785L12.5137 32.5254C12.148 32.7332 11.7996 32.841 11.4852 32.859V32.859ZM10.5094 32.5363L10.5063 32.5336C10.5074 32.5344 10.5086 32.5355 10.5094 32.5363ZM10.4418 32.4707L10.4355 32.4645V32.4641C10.4379 32.4664 10.4398 32.4687 10.4418 32.4707Z" fill="black"/>
<path d="M27.0277 24.2784L27.1219 24.2249L27.0277 24.2784Z" fill="url(#paint4_linear)"/>
<path d="M11.3938 32.8613C11.0477 32.8613 10.7453 32.7484 10.5098 32.5359L10.5094 32.5363C10.5086 32.5355 10.5074 32.5344 10.5063 32.5336L10.4418 32.4707C10.4398 32.4687 10.4379 32.4664 10.4355 32.4641L10.5098 32.3898C10.7453 32.6023 11.0473 32.7152 11.3934 32.7148C11.7316 32.7148 12.1121 32.607 12.5137 32.3793L27.0289 24.132L27.1219 24.225L27.0277 24.2785L12.5137 32.5254C12.1477 32.7328 11.7996 32.841 11.4852 32.859C11.4543 32.8605 11.4238 32.8613 11.3938 32.8613" fill="url(#paint5_linear)"/>
<path d="M10.4355 32.4645C10.1445 32.1566 9.97272 31.6785 9.97272 31.0594V31.059C9.97272 31.6785 10.1445 32.1562 10.4355 32.4641V32.4645" fill="black"/>
<path d="M10.4355 32.4641C10.1445 32.1562 9.97272 31.6784 9.97272 31.0589V30.9132C9.97272 31.5323 10.1445 32.0105 10.4355 32.3184L10.5098 32.3895L10.4355 32.4641" fill="url(#paint6_linear)"/>
<path d="M10.4355 32.4641L10.5098 32.3895V32.3897L10.4355 32.4641" fill="url(#paint7_linear)"/>
<path d="M32.9473 20.518C33.0242 20.3492 33.0629 20.1758 33.0629 20.0023C33.0629 20.002 33.0629 20.0016 33.0629 20.0016C33.0629 20.1754 33.0242 20.3488 32.9473 20.518Z" fill="black"/>
<path d="M27.1219 24.225L27.0289 24.132L32.0148 21.2988C32.648 20.9391 33.0035 20.475 33.0629 20.0023C33.0629 20.1758 33.0242 20.3492 32.9473 20.518C32.7922 20.8582 32.4813 21.1797 32.0148 21.4449L27.1219 24.225Z" fill="url(#paint8_linear)"/>
<path d="M33.063 20.0008V20.0004C33.0626 19.4773 32.713 18.9543 32.0149 18.5574L27.122 15.7773H27.1216L27.122 15.777L32.0149 18.557C32.7138 18.9539 33.0638 19.4777 33.063 20.0008Z" fill="#404040"/>
<path d="M33.0629 20.0004C33.0035 19.5266 32.648 19.0629 32.0148 18.7031L27.0285 15.8703L27.1215 15.7773H27.1219L32.0148 18.5574C32.7129 18.9543 33.0625 19.4773 33.0629 20.0004Z" fill="url(#paint9_linear)"/>
<path d="M9.97272 8.93793C9.97272 8.93753 9.97272 8.93713 9.97272 8.93673C9.97272 8.93713 9.97272 8.93753 9.97272 8.93793ZM9.97702 8.77543C9.97702 8.77463 9.97702 8.77383 9.97702 8.77303C9.97702 8.77383 9.97702 8.77463 9.97702 8.77543ZM9.97732 8.77073C9.97732 8.76913 9.97732 8.76763 9.97732 8.76603C9.97732 8.76763 9.97732 8.76913 9.97732 8.77073ZM9.97732 8.76483C10.0352 7.73753 10.5938 7.14413 11.384 7.14063C11.0414 7.14263 10.743 7.25513 10.5094 7.46563V7.46523L10.5066 7.46803C10.482 7.49023 10.4586 7.51373 10.4355 7.53793C10.173 7.81563 10.0074 8.23163 9.97732 8.76483Z" fill="#404040"/>
<path d="M9.97272 9.08948V8.94338C9.97272 8.94138 9.97272 8.93978 9.97272 8.93788C9.97272 8.93748 9.97272 8.93708 9.97272 8.93668C9.97272 8.88158 9.97422 8.82768 9.97702 8.77538C9.97702 8.77458 9.97702 8.77378 9.97702 8.77298C9.97702 8.77228 9.97702 8.77148 9.97732 8.77068C9.97732 8.76908 9.97732 8.76758 9.97732 8.76598C9.97732 8.76558 9.97732 8.76518 9.97732 8.76478C10.0074 8.23158 10.173 7.81558 10.4355 7.53788L10.5086 7.61128C10.173 7.91408 9.97272 8.41908 9.97272 9.08948V9.08948ZM10.5066 7.46798L10.5094 7.46518C10.5086 7.46638 10.5074 7.46718 10.5066 7.46798Z" fill="url(#paint10_linear)"/>
<path d="M27.0285 15.8702L12.5137 7.62294C12.1113 7.39484 11.7305 7.28664 11.3914 7.28664C11.0457 7.28664 10.7441 7.39914 10.5086 7.61124L10.4355 7.53784C10.4586 7.51364 10.482 7.49014 10.5066 7.46794C10.5074 7.46714 10.5086 7.46634 10.5094 7.46554C10.743 7.25504 11.0414 7.14254 11.384 7.14054C11.3848 7.14054 11.3859 7.14054 11.3871 7.14054C11.3887 7.14054 11.3898 7.14054 11.3914 7.14054C11.7305 7.14054 12.1113 7.24874 12.5137 7.47694L27.1219 15.7769L27.1215 15.7772L27.0285 15.8702Z" fill="url(#paint11_linear)"/>
<path d="M43.4965 9.96671C43.5082 10.9159 43.318 11.6815 42.9273 12.2628H45.9605V7.73701H43.4965V9.96671ZM42.1137 14.2733H41.3766V12.2628H41.9633C42.4828 11.8151 42.7367 11.0503 42.7262 9.96671V6.99991H46.732V12.2628H47.402V14.2733H46.6645V12.9999H42.1137V14.2733" fill="white"/>
<path d="M43.4965 9.96681L43.3965 9.96801L43.3973 10.0488C43.3969 10.9469 43.2094 11.6641 42.8441 12.207L42.7395 12.3629H46.0605V7.63711H43.3965V9.96761V9.96801L43.4965 9.96681H43.5965V7.83711H45.8605V12.1629H42.9273V12.2629L43.0102 12.3184C43.4035 11.7332 43.5973 10.9738 43.5973 10.0488L43.5965 9.96561L43.4965 9.96681H43.5965H43.4965ZM42.1137 14.2734V14.1734H41.4766V12.3629H41.9633H42.0004L42.0285 12.3387C42.5691 11.8723 42.8266 11.0953 42.8266 10.0324L42.8262 9.96601V9.96681V7.10001H46.632V12.3629H47.302V14.1734H46.7645V13V12.9H42.0137V14.2734H42.1137V14.1734V14.2734H42.2137V13.1H46.5645V14.2734V14.3734H47.402H47.502V12.1629H46.832V6.90001H42.6262V9.96721V9.96761L42.6266 10.0324C42.6262 11.0672 42.3754 11.777 41.898 12.1867L41.9633 12.2629V12.1629H41.3766H41.2766V14.3734H42.1137H42.2137V14.2734H42.1137" fill="white"/>
<path d="M49.5844 11.7223C50.0289 12.1719 50.572 12.3965 51.2146 12.3965C51.8571 12.3965 52.4008 12.1719 52.8441 11.7223C53.2887 11.2727 53.5113 10.698 53.5113 9.99997C53.5113 9.30197 53.2887 8.72727 52.8441 8.27767C52.4008 7.82807 51.8571 7.60347 51.2146 7.60347C50.572 7.60347 50.0289 7.82807 49.5844 8.27767C49.141 8.72727 48.9185 9.30197 48.9185 9.99997C48.9185 10.698 49.141 11.2727 49.5844 11.7223ZM53.4146 12.2246C52.8247 12.8312 52.0915 13.134 51.2146 13.134C50.3376 13.134 49.6039 12.8312 49.0152 12.2246C48.4254 11.6187 48.1313 10.877 48.1313 9.99997C48.1313 9.12297 48.4254 8.38117 49.0152 7.77537C49.6039 7.16867 50.3376 6.86557 51.2146 6.86557C52.0864 6.86557 52.818 7.17027 53.4105 7.77927C54.0023 8.38827 54.2984 9.12847 54.2984 9.99997C54.2984 10.877 54.0036 11.6187 53.4146 12.2246Z" fill="white"/>
<path d="M49.5844 11.7222L49.5133 11.7925C49.9738 12.2601 50.5484 12.4976 51.2145 12.4964C51.8801 12.4976 52.4559 12.2601 52.9152 11.7925C53.3789 11.3245 53.6121 10.719 53.6113 9.99995C53.6121 9.28085 53.3789 8.67535 52.9152 8.20735C52.4559 7.73975 51.8801 7.50225 51.2145 7.50345C50.5484 7.50225 49.9738 7.73975 49.5133 8.20735C49.0508 8.67535 48.8176 9.28085 48.8184 9.99995C48.8176 10.719 49.0508 11.3245 49.5133 11.7925L49.5844 11.7222L49.6559 11.6519C49.2316 11.2202 49.0195 10.6772 49.0184 9.99995C49.0195 9.32265 49.2316 8.77965 49.6559 8.34795H49.6555C50.0836 7.91635 50.5949 7.70465 51.2145 7.70345C51.8336 7.70465 52.3461 7.91635 52.773 8.34795L52.7746 8.34955L52.773 8.34795C53.1984 8.77965 53.4102 9.32265 53.4113 9.99995C53.4102 10.6772 53.1984 11.2202 52.773 11.6519C52.3461 12.0835 51.8336 12.2952 51.2145 12.2964C50.5949 12.2952 50.0836 12.0835 49.6555 11.6519L49.5844 11.7222ZM53.4145 12.2245L53.343 12.155C52.7699 12.7425 52.0684 13.0327 51.2145 13.0339C50.3602 13.0327 49.659 12.7425 49.0867 12.155C48.5148 11.5655 48.2324 10.8546 48.2313 9.99995C48.2324 9.14525 48.5148 8.43435 49.0867 7.84485C49.659 7.25735 50.3602 6.96675 51.2145 6.96555C52.0633 6.96675 52.7629 7.25855 53.3391 7.84915C53.9133 8.44135 54.1973 9.15115 54.1984 9.99995C54.1973 10.8546 53.9141 11.5655 53.343 12.155L53.4145 12.2245L53.4863 12.294C54.0926 11.6714 54.3992 10.8991 54.3984 9.99995C54.3992 9.10585 54.0918 8.33515 53.4824 7.70975C52.873 7.08195 52.1098 6.76445 51.2145 6.76555C50.3145 6.76445 49.5488 7.08045 48.9434 7.70585V7.70545C48.3359 8.32845 48.0305 9.10075 48.0313 9.99995C48.0305 10.8991 48.3359 11.6714 48.9434 12.2944V12.294C49.5488 12.9194 50.3145 13.2347 51.2145 13.2339C52.1141 13.2347 52.8797 12.9194 53.4863 12.294L53.4145 12.2245Z" fill="white"/>
<path d="M58.1793 13.134C57.2965 13.134 56.5563 12.8352 55.9586 12.2371C55.3598 11.6395 55.0621 10.8937 55.0621 9.99997C55.0621 9.10617 55.3598 8.36047 55.9586 7.76287C56.5563 7.16477 57.2965 6.86557 58.1793 6.86557C59.0836 6.86557 59.8188 7.19257 60.3832 7.84607L59.8461 8.36597C59.4391 7.85737 58.8824 7.60347 58.1793 7.60347C57.525 7.60347 56.973 7.82417 56.5238 8.26557C56.0738 8.70697 55.8492 9.28517 55.8492 9.99997C55.8492 10.7148 56.0738 11.2934 56.5238 11.7344C56.973 12.1758 57.525 12.3965 58.1793 12.3965C58.9 12.3965 59.5141 12.1062 60.023 11.5254L60.559 12.0613C60.2848 12.391 59.9418 12.6523 59.5277 12.8445C59.1148 13.0375 58.6645 13.134 58.1793 13.134" fill="white"/>
<path d="M58.1793 13.1339V13.0339C57.3188 13.0327 56.6098 12.7456 56.0293 12.1663C55.4492 11.5862 55.1629 10.8714 55.1621 9.99995C55.1629 9.12845 55.4492 8.41365 56.0293 7.83355C56.6098 7.25385 57.3188 6.96675 58.1793 6.96555C59.0598 6.96715 59.7598 7.27885 60.3074 7.91125L60.3832 7.84605L60.3137 7.77415L59.7766 8.29445L59.8461 8.36595L59.9242 8.30345C59.5 7.77145 58.9059 7.50195 58.1793 7.50345C57.5023 7.50265 56.9199 7.73515 56.4539 8.19405C55.9832 8.65465 55.748 9.26475 55.7492 9.99995C55.748 10.7351 55.9832 11.346 56.4539 11.8058C56.9199 12.2647 57.5023 12.4972 58.1793 12.4964C58.9273 12.4976 59.5754 12.1905 60.098 11.5913L60.023 11.5253L59.9523 11.596L60.4883 12.1319L60.559 12.0612L60.482 11.9976C60.2172 12.3155 59.8875 12.5671 59.4855 12.7538C59.0859 12.9405 58.6516 13.0335 58.1793 13.0339V13.1339V13.2339C58.6777 13.2339 59.1434 13.1347 59.5699 12.9351C59.9965 12.7374 60.352 12.4667 60.6359 12.1253L60.6941 12.0554L60.0938 11.4546L60.018 11.3788L59.9477 11.4593C59.4531 12.0222 58.8727 12.2952 58.1793 12.2964C57.5473 12.2952 57.0266 12.0866 56.5941 11.6628H56.5938C56.1641 11.2409 55.95 10.6944 55.9492 9.99995C55.95 9.30545 56.1641 8.75975 56.5938 8.33705H56.5941C57.0266 7.91325 57.5473 7.70465 58.1793 7.70345C58.8586 7.70505 59.3777 7.94335 59.768 8.42845L59.8367 8.51445L60.4527 7.91795L60.5207 7.85225L60.459 7.78085C59.8781 7.10585 59.1074 6.76445 58.1793 6.76555C57.2738 6.76475 56.5023 7.07615 55.8879 7.69215C55.2703 8.30695 54.9609 9.08435 54.9621 9.99995C54.9609 10.9155 55.2703 11.6929 55.8879 12.3081C56.5023 12.9237 57.2738 13.2347 58.1793 13.2339V13.1339" fill="white"/>
<path d="M63.6773 13H62.9059V7.7371H61.2301V7H65.3531V7.7371H63.6773V13Z" fill="white"/>
<path d="M63.6774 13V12.9H63.006V7.63708H61.3302V7.09998H65.2532V7.63708H63.5774V13H63.6774V12.9V13H63.7774V7.83708H65.4532V6.99998V6.89998H61.1302V7.73708V7.83708H62.806V13.1H63.6774H63.7774V13H63.6774" fill="white"/>
<path d="M70.6465 6.99997L68.3762 12.0613C68.0625 12.7766 67.5973 13.134 66.977 13.134C66.7926 13.134 66.5941 13.0895 66.3813 13L66.5824 12.2875C66.7113 12.3605 66.8453 12.3965 66.9848 12.3965C67.1637 12.3965 67.3023 12.3617 67.4 12.2922C67.4977 12.2223 67.5883 12.0945 67.6723 11.9105L67.8902 11.4324L65.8707 6.99997H66.7758L68.259 10.4441H68.2922L69.741 6.99997H70.6465" fill="white"/>
<path d="M70.6466 6.99999L70.5552 6.95899L68.2849 12.0207L68.2845 12.0215C67.9759 12.7148 67.5544 13.0305 66.9771 13.034C66.8087 13.034 66.6235 12.9934 66.42 12.9078L66.3814 13L66.4778 13.0273L66.6786 12.3148L66.5825 12.2875L66.5337 12.3746C66.6759 12.4551 66.8278 12.4969 66.9849 12.4965C67.1759 12.4965 67.336 12.4602 67.4583 12.3734C67.5786 12.2863 67.6751 12.1445 67.7634 11.9523L67.9814 11.4742L68.0001 11.4324L66.0263 7.09999H66.7103L68.1931 10.5441H68.2923H68.3587L69.8075 7.09999H70.6466V6.99999L70.5552 6.95899L70.6466 6.99999V6.89999H69.7411H69.6747L68.1997 10.4055L68.2923 10.4441V10.3441H68.2591V10.4441L68.3509 10.4047L66.8419 6.89999H65.8708H65.7153L67.7802 11.4324L67.5814 11.8691C67.5021 12.0445 67.4169 12.1578 67.3419 12.2105C67.2689 12.2633 67.1513 12.2969 66.9849 12.2965C66.8626 12.2965 66.7474 12.2656 66.6317 12.2004L66.5208 12.1379L66.2853 12.9727L66.261 13.0578L66.3427 13.0922C66.5649 13.1855 66.7763 13.234 66.9771 13.234C67.6399 13.2371 68.1493 12.8379 68.4677 12.1016L68.4673 12.1023L70.8009 6.89999H70.6466V6.99999" fill="white"/>
<path d="M71.5195 13V7H75.8605V13H75.0891V7.7371H72.2898V13H71.5195Z" fill="white"/>
<path d="M71.5196 13H71.6196V7.09998H75.7603V12.9H75.1892V7.63708H72.1899V12.9H71.5196V13H71.6196H71.5196V13.1H72.2899H72.3899V7.83708H74.9892V13.1H75.8606H75.9606V6.89998H71.4196V13.1H71.5196V13" fill="white"/>
<path d="M77.2344 13V7H78.0051V9.5723H81.0051V7H81.7766V13H81.0051V10.293H78.0051V13H77.2344Z" fill="white"/>
<path d="M77.2345 13H77.3345V7.09998H77.9052V9.67227H81.1052V7.09998H81.6767V12.9H81.1052V10.193H77.9052V12.9H77.2345V13H77.3345H77.2345V13.1H78.0052H78.1052V10.393H80.9052V13.1H81.7767H81.8767V6.89998H81.0052H80.9052V9.47227H78.1052V6.89998H77.2345H77.1345V13.1H77.2345V13Z" fill="white"/>
<path d="M84.2273 11.7223C84.6719 12.1719 85.2148 12.3965 85.8574 12.3965C86.5 12.3965 87.0438 12.1719 87.4871 11.7223C87.9316 11.2727 88.1543 10.698 88.1543 9.99997C88.1543 9.30197 87.9316 8.72727 87.4871 8.27767C87.0438 7.82807 86.5 7.60347 85.8574 7.60347C85.2148 7.60347 84.6719 7.82807 84.2273 8.27767C83.7844 8.72727 83.5613 9.30197 83.5613 9.99997C83.5613 10.698 83.7844 11.2727 84.2273 11.7223ZM88.0574 12.2246C87.468 12.8312 86.7344 13.134 85.8574 13.134C84.9805 13.134 84.2473 12.8312 83.6582 12.2246C83.0684 11.6187 82.7742 10.877 82.7742 9.99997C82.7742 9.12297 83.0684 8.38117 83.6582 7.77537C84.2473 7.16867 84.9805 6.86557 85.8574 6.86557C86.7297 6.86557 87.4609 7.17027 88.0535 7.77927C88.6453 8.38827 88.9414 9.12847 88.9414 9.99997C88.9414 10.877 88.6465 11.6187 88.0574 12.2246Z" fill="white"/>
<path d="M84.2274 11.7222L84.1564 11.7925C84.6173 12.2601 85.1915 12.4976 85.8575 12.4964C86.5235 12.4976 87.0989 12.2601 87.5587 11.7925C88.022 11.3245 88.2552 10.719 88.2544 9.99995C88.2552 9.28085 88.022 8.67535 87.5587 8.20735C87.0989 7.73975 86.5235 7.50225 85.8575 7.50345C85.1915 7.50225 84.6173 7.73975 84.1564 8.20735C83.6939 8.67535 83.4606 9.28085 83.4614 9.99995C83.4606 10.719 83.6939 11.3245 84.1564 11.7925L84.2274 11.7222L84.2989 11.6519C83.8747 11.2202 83.6626 10.6772 83.6614 9.99995C83.6626 9.32265 83.8747 8.77965 84.2989 8.34795C84.7267 7.91635 85.2384 7.70465 85.8575 7.70345C86.4767 7.70465 86.9892 7.91635 87.4161 8.34795L87.4192 8.35115L87.4161 8.34795C87.8415 8.77965 88.0536 9.32265 88.0544 9.99995C88.0536 10.6772 87.8415 11.2202 87.4161 11.6519C86.9892 12.0835 86.4767 12.2952 85.8575 12.2964C85.2384 12.2952 84.7267 12.0835 84.2989 11.6519L84.2274 11.7222ZM88.0575 12.2245L87.986 12.155C87.413 12.7425 86.7114 13.0327 85.8575 13.0339C85.0036 13.0327 84.3021 12.7425 83.7302 12.155L83.7271 12.1519L83.7302 12.155C83.1579 11.5655 82.8755 10.8546 82.8743 9.99995C82.8755 9.14525 83.1579 8.43435 83.7302 7.84485C84.3021 7.25735 85.0036 6.96675 85.8575 6.96555C86.7064 6.96675 87.406 7.25855 87.9821 7.84915C88.5564 8.44135 88.8407 9.15115 88.8415 9.99995C88.8407 10.8546 88.5571 11.5655 87.986 12.155L88.0575 12.2245L88.1294 12.294C88.736 11.6714 89.0423 10.8991 89.0415 9.99995C89.0423 9.10585 88.7349 8.33515 88.1255 7.70975C87.5161 7.08195 86.7528 6.76445 85.8575 6.76555C84.9575 6.76445 84.1923 7.08045 83.5864 7.70585V7.70545C82.979 8.32845 82.6735 9.10075 82.6743 9.99995C82.6735 10.8991 82.979 11.6714 83.5864 12.2944V12.294C84.1923 12.9194 84.9575 13.2347 85.8575 13.2339C86.7575 13.2347 87.5228 12.9194 88.1294 12.294L88.0575 12.2245" fill="white"/>
<path d="M92.8641 12.2629H94.4151C94.7111 12.2629 94.9511 12.1594 95.1361 11.952C95.3201 11.7461 95.4121 11.5195 95.4121 11.2734C95.4121 11.0277 95.3171 10.8031 95.1271 10.5992C94.9381 10.3953 94.6881 10.293 94.3811 10.293H92.8641V12.2629ZM92.8641 9.5723H94.2641C94.5551 9.5723 94.7881 9.4766 94.9641 9.2832C95.1401 9.0906 95.2281 8.8801 95.2281 8.6508C95.2281 8.4219 95.1431 8.2117 94.9721 8.0227C94.8021 7.8324 94.5771 7.7371 94.2981 7.7371H92.8641V9.5723ZM92.0941 13V7H94.2641C94.7331 7 95.1401 7.1555 95.4831 7.4648C95.8271 7.7754 95.9991 8.1648 95.9991 8.634C95.9991 8.9187 95.9251 9.1703 95.7761 9.3883C95.6291 9.6062 95.4321 9.7711 95.1861 9.8828V9.916C95.4811 10.0164 95.7251 10.1898 95.9151 10.4355C96.1041 10.6816 96.2001 10.9668 96.2001 11.2906C96.2001 11.782 96.0201 12.1898 95.6591 12.5137C95.2991 12.8379 94.8731 13 94.3811 13H92.0941" fill="white"/>
<path d="M92.8641 12.2629V12.3629H94.4151C94.7341 12.3641 95.0091 12.2469 95.2101 12.0187C95.4081 11.7988 95.5131 11.5449 95.5121 11.2734C95.5131 11.0016 95.4041 10.7488 95.2001 10.5309C94.9931 10.3062 94.7101 10.1918 94.3811 10.193H92.7641V12.3629H92.8641V12.2629H92.9641V10.393H94.3811C94.6671 10.3941 94.8821 10.4848 95.0541 10.6672C95.2301 10.8578 95.3111 11.0543 95.3121 11.2734C95.3111 11.4941 95.2321 11.6934 95.0611 11.8855C94.8941 12.0715 94.6881 12.1613 94.4151 12.1629H92.8641V12.2629H92.9641H92.8641ZM92.8641 9.57227V9.67227H94.2641C94.5761 9.67337 94.8441 9.56557 95.0381 9.35037V9.35077C95.2271 9.14447 95.3281 8.90617 95.3281 8.65077C95.3281 8.39687 95.2311 8.15937 95.0461 7.95547V7.95587C94.8591 7.74407 94.5991 7.63587 94.2981 7.63707H92.7641V9.67227H92.8641V9.57227H92.9641V7.83707H94.2981C94.5551 7.83867 94.7451 7.92067 94.8971 8.08907L94.8981 8.08977L94.8971 8.08947C95.0541 8.26447 95.1271 8.44727 95.1281 8.65077C95.1271 8.85347 95.0521 9.03707 94.8901 9.21557V9.21597C94.7321 9.38747 94.5331 9.47107 94.2641 9.47227H92.8641V9.57227H92.9641H92.8641ZM92.0941 13H92.1941V7.09997H94.2641C94.7111 7.10077 95.0891 7.24527 95.4161 7.53907C95.7411 7.83357 95.8981 8.18947 95.8991 8.63397C95.8991 8.90157 95.8301 9.13087 95.6941 9.33197C95.5561 9.53517 95.3751 9.68667 95.1441 9.79177L95.0861 9.81837V9.91597V9.98747L95.1531 10.0105C95.4321 10.1059 95.6571 10.266 95.8361 10.4969L95.8371 10.498L95.8361 10.4965C96.0121 10.7262 96.1001 10.9863 96.1001 11.2906C96.0991 11.7578 95.9331 12.1316 95.5921 12.4395C95.2481 12.7477 94.8511 12.8992 94.3811 12.9H92.0941V13H92.1941H92.0941V13.1H94.3811C94.8951 13.1008 95.3491 12.9281 95.7261 12.5879C96.1061 12.2484 96.3011 11.8066 96.3001 11.2906C96.3011 10.9473 96.1971 10.6371 95.9941 10.3746L95.9931 10.3734L95.9941 10.3742C95.7931 10.1141 95.5311 9.92727 95.2181 9.82147L95.1861 9.91597H95.2861V9.88277H95.1861L95.2271 9.97377C95.4881 9.85547 95.7021 9.67767 95.8591 9.44407V9.44447C96.0191 9.20977 96.0991 8.93587 96.0991 8.63397C96.1001 8.14057 95.9141 7.71717 95.5501 7.39057L95.5481 7.38867L95.5501 7.39057C95.1901 7.06517 94.7551 6.89917 94.2641 6.89997H91.9941V13.1H92.0941V13" fill="white"/>
<defs>
<linearGradient id="paint0_linear" x1="21.7998" y1="8.70967" x2="5.01732" y2="25.4922" gradientUnits="userSpaceOnUse">
<stop stop-color="#00A0FF"/>
<stop offset="0.00657445" stop-color="#00A1FF"/>
<stop offset="0.2601" stop-color="#00BEFF"/>
<stop offset="0.5122" stop-color="#00D2FF"/>
<stop offset="0.7604" stop-color="#00DFFF"/>
<stop offset="1" stop-color="#00E3FF"/>
</linearGradient>
<linearGradient id="paint1_linear" x1="33.8344" y1="20.0013" x2="9.63738" y2="20.0013" gradientUnits="userSpaceOnUse">
<stop stop-color="#FFE000"/>
<stop offset="0.4087" stop-color="#FFBD00"/>
<stop offset="0.7754" stop-color="#FFA500"/>
<stop offset="1" stop-color="#FF9C00"/>
</linearGradient>
<linearGradient id="paint2_linear" x1="24.827" y1="22.2961" x2="2.06873" y2="45.0544" gradientUnits="userSpaceOnUse">
<stop stop-color="#FF3A44"/>
<stop offset="1" stop-color="#C31162"/>
</linearGradient>
<linearGradient id="paint3_linear" x1="7.29737" y1="0.176194" x2="17.4599" y2="10.3387" gradientUnits="userSpaceOnUse">
<stop stop-color="#32A071"/>
<stop offset="0.0685" stop-color="#2DA771"/>
<stop offset="0.4762" stop-color="#15CF74"/>
<stop offset="0.8009" stop-color="#06E775"/>
<stop offset="1" stop-color="#00F076"/>
</linearGradient>
<linearGradient id="paint4_linear" x1="33.8343" y1="20.0013" x2="9.63767" y2="20.0013" gradientUnits="userSpaceOnUse">
<stop stop-color="#CCB300"/>
<stop offset="0.4087" stop-color="#CC9700"/>
<stop offset="0.7754" stop-color="#CC8400"/>
<stop offset="1" stop-color="#CC7D00"/>
</linearGradient>
<linearGradient id="paint5_linear" x1="24.827" y1="22.2961" x2="2.06874" y2="45.0544" gradientUnits="userSpaceOnUse">
<stop stop-color="#CC2E36"/>
<stop offset="1" stop-color="#9C0E4E"/>
</linearGradient>
<linearGradient id="paint6_linear" x1="21.7998" y1="8.70963" x2="5.01731" y2="25.4921" gradientUnits="userSpaceOnUse">
<stop stop-color="#008DE0"/>
<stop offset="0.00657445" stop-color="#008DE0"/>
<stop offset="0.2601" stop-color="#00A7E0"/>
<stop offset="0.5122" stop-color="#00B8E0"/>
<stop offset="0.7604" stop-color="#00C4E0"/>
<stop offset="1" stop-color="#00C7E0"/>
</linearGradient>
<linearGradient id="paint7_linear" x1="24.8273" y1="22.296" x2="2.0689" y2="45.0547" gradientUnits="userSpaceOnUse">
<stop stop-color="#E0333C"/>
<stop offset="1" stop-color="#AB0F56"/>
</linearGradient>
<linearGradient id="paint8_linear" x1="33.8344" y1="20.0014" x2="9.63743" y2="20.0014" gradientUnits="userSpaceOnUse">
<stop stop-color="#E0C500"/>
<stop offset="0.4087" stop-color="#E0A600"/>
<stop offset="0.7754" stop-color="#E09100"/>
<stop offset="1" stop-color="#E08900"/>
</linearGradient>
<linearGradient id="paint9_linear" x1="33.8344" y1="20.0014" x2="9.6374" y2="20.0014" gradientUnits="userSpaceOnUse">
<stop stop-color="#FFE840"/>
<stop offset="0.4087" stop-color="#FFCE40"/>
<stop offset="0.7754" stop-color="#FFBC40"/>
<stop offset="1" stop-color="#FFB540"/>
</linearGradient>
<linearGradient id="paint10_linear" x1="21.7998" y1="8.70968" x2="5.01732" y2="25.4921" gradientUnits="userSpaceOnUse">
<stop stop-color="#40B8FF"/>
<stop offset="0.00657445" stop-color="#40B9FF"/>
<stop offset="0.2601" stop-color="#40CEFF"/>
<stop offset="0.5122" stop-color="#40DDFF"/>
<stop offset="0.7604" stop-color="#40E7FF"/>
<stop offset="1" stop-color="#40EAFF"/>
</linearGradient>
<linearGradient id="paint11_linear" x1="7.29735" y1="0.176139" x2="17.4598" y2="10.3386" gradientUnits="userSpaceOnUse">
<stop stop-color="#65B895"/>
<stop offset="0.0685" stop-color="#62BD95"/>
<stop offset="0.4762" stop-color="#50DB97"/>
<stop offset="0.8009" stop-color="#44ED98"/>
<stop offset="1" stop-color="#40F498"/>
</linearGradient>
</defs>
</svg>
