<?xml version="1.0" encoding="utf-8"?>
<svg width="36px" height="34px" viewBox="0 0 36 34" version="1.1" xmlns:xlink="http://www.w3.org/1999/xlink" xmlns="http://www.w3.org/2000/svg">
  <desc>Created with Lunacy</desc>
  <path d="M12.6527 6.11264L20.9489 22.6296Q20.9935 22.7186 21.0322 22.8103Q21.0709 22.902 21.1034 22.9961Q21.1359 23.0902 21.1621 23.1862Q21.1883 23.2822 21.2081 23.3798Q21.2279 23.4774 21.2412 23.576Q21.2544 23.6747 21.2611 23.774Q21.2678 23.8733 21.2679 23.9729Q21.268 24.0724 21.2615 24.1717Q21.255 24.2711 21.2419 24.3697Q21.2288 24.4684 21.2092 24.566Q21.1896 24.6636 21.1636 24.7597Q21.1376 24.8558 21.1053 24.9499Q21.0729 25.0441 21.0344 25.1358Q20.9959 25.2276 20.9514 25.3167Q20.9069 25.4057 20.8566 25.4916Q20.8063 25.5775 20.7504 25.6599Q20.6945 25.7422 20.6332 25.8207Q20.572 25.8992 20.5057 25.9734Q20.4394 26.0477 20.3683 26.1173Q20.2972 26.187 20.2217 26.2518Q20.1461 26.3167 20.0664 26.3763Q19.9867 26.436 19.9033 26.4902Q19.8198 26.5445 19.7329 26.5931Q19.6461 26.6417 19.5562 26.6844Q19.4662 26.7271 19.3737 26.7638Q19.2812 26.8005 19.1864 26.8309Q19.0916 26.8614 18.995 26.8855Q18.8985 26.9096 18.8005 26.9272Q18.7025 26.9449 18.6036 26.956Q18.5047 26.9671 18.4052 26.9716Q18.3058 26.9761 18.2063 26.9741Q18.1068 26.972 18.0076 26.9633L3.94169 25.733Q3.85557 25.7255 3.77002 25.713Q3.68447 25.7005 3.59978 25.6831Q3.5151 25.6657 3.43155 25.6435Q3.34801 25.6212 3.26588 25.5942Q3.18376 25.5672 3.10333 25.5355Q3.02289 25.5038 2.94442 25.4675Q2.86595 25.4312 2.7897 25.3905Q2.71344 25.3498 2.63967 25.3047Q2.56589 25.2596 2.49483 25.2104Q2.42377 25.1611 2.35566 25.1079Q2.28756 25.0546 2.22264 24.9976Q2.15771 24.9405 2.09618 24.8797Q2.03466 24.819 1.97673 24.7548Q1.9188 24.6906 1.86467 24.6232Q1.81054 24.5558 1.76038 24.4854Q1.71022 24.415 1.6642 24.3418Q1.61818 24.2686 1.57645 24.1929Q1.53472 24.1172 1.49743 24.0392Q1.46013 23.9612 1.42739 23.8812Q1.39465 23.8012 1.36657 23.7194Q1.33849 23.6376 1.31517 23.5544Q1.29185 23.4711 1.27337 23.3867Q1.25488 23.3022 1.24129 23.2168Q1.2277 23.1315 1.21905 23.0454Q1.2104 22.9594 1.20672 22.873Q1.20304 22.7867 1.20435 22.7002Q1.20565 22.6138 1.21193 22.5275Q1.21821 22.4413 1.22945 22.3556Q1.24069 22.2699 1.25684 22.1849Q1.273 22.1 1.29402 22.0162Q1.31504 21.9323 1.34086 21.8498Q1.36668 21.7673 1.39721 21.6864L7.16697 6.3997Q7.2053 6.29816 7.25086 6.19965Q7.29643 6.10114 7.349 6.00618Q7.40157 5.91123 7.46086 5.82032Q7.52016 5.72941 7.58587 5.64303Q7.65158 5.55664 7.72337 5.47523Q7.79515 5.39383 7.87263 5.31782Q7.95011 5.24181 8.03289 5.17161Q8.11566 5.1014 8.20329 5.03736Q8.29092 4.97332 8.38295 4.91578Q8.47499 4.85825 8.57094 4.80751Q8.66688 4.75678 8.76625 4.71311Q8.86562 4.66945 8.96788 4.63308Q9.07014 4.59671 9.17477 4.56783Q9.27939 4.53895 9.38583 4.51771Q9.49227 4.49647 9.59996 4.48298Q9.70766 4.46948 9.81604 4.46381Q9.92443 4.45814 10.0329 4.46032Q10.1415 4.4625 10.2495 4.47251Q10.3576 4.48253 10.4647 4.50033Q10.5717 4.51814 10.6772 4.54363Q10.7827 4.56913 10.8861 4.60218Q10.9895 4.63524 11.0902 4.67568Q11.1909 4.71612 11.2885 4.76374Q11.386 4.81136 11.4799 4.8659Q11.5737 4.92044 11.6633 4.98163Q11.753 5.04281 11.838 5.11031Q11.923 5.17782 12.0029 5.25129Q12.0827 5.32476 12.1571 5.40381Q12.2315 5.48287 12.2999 5.56709Q12.3684 5.65131 12.4306 5.74027Q12.4928 5.82922 12.5484 5.92243Q12.604 6.01565 12.6527 6.11264Z" transform="matrix(0.5 -0.8660254 0.8660254 0.5 0 20.23096)" id="Triangle" fill="#C1A476" stroke="none" />
</svg>