<?xml version="1.0" encoding="utf-8"?>
<svg width="37px" height="37px" viewBox="0 0 37 37" version="1.1" xmlns:xlink="http://www.w3.org/1999/xlink" xmlns="http://www.w3.org/2000/svg">
  <desc>Created with Lunacy</desc>
  <path d="M15.8216 5.5425L24.1878 22.7177Q24.2294 22.8031 24.2655 22.8908Q24.3015 22.9786 24.332 23.0685Q24.3625 23.1584 24.3872 23.2501Q24.4119 23.3417 24.4308 23.4347Q24.4496 23.5278 24.4626 23.6218Q24.4756 23.7158 24.4825 23.8105Q24.4895 23.9052 24.4905 24.0001Q24.4915 24.095 24.4865 24.1898Q24.4814 24.2846 24.4704 24.3788Q24.4594 24.4731 24.4425 24.5665Q24.4255 24.6599 24.4027 24.752Q24.3799 24.8442 24.3513 24.9347Q24.3227 25.0252 24.2884 25.1137Q24.2541 25.2022 24.2143 25.2884Q24.1745 25.3746 24.1294 25.4581Q24.0842 25.5416 24.0339 25.622Q23.9835 25.7025 23.9282 25.7796Q23.8728 25.8567 23.8127 25.9302Q23.7526 26.0036 23.688 26.0732Q23.6233 26.1427 23.5544 26.208Q23.4855 26.2732 23.4126 26.334Q23.3397 26.3948 23.2632 26.4509Q23.1866 26.507 23.1066 26.5581Q23.0266 26.6092 22.9435 26.6552Q22.8605 26.7011 22.7747 26.7417Q22.6889 26.7823 22.6007 26.8174Q22.5125 26.8525 22.4223 26.882Q22.3321 26.9114 22.2401 26.9351Q22.1482 26.9588 22.055 26.9767Q21.9618 26.9945 21.8676 27.0064Q21.7734 27.0183 21.6787 27.0242Q21.5839 27.0301 21.489 27.03L4.78636 27.0154Q4.69158 27.0153 4.59698 27.0093Q4.50239 27.0032 4.40837 26.9912Q4.31435 26.9791 4.22127 26.9612Q4.1282 26.9433 4.03645 26.9195Q3.94469 26.8957 3.85462 26.8662Q3.76455 26.8366 3.67653 26.8015Q3.5885 26.7663 3.50287 26.7257Q3.41724 26.685 3.33435 26.639Q3.25146 26.5931 3.17164 26.5419Q3.09182 26.4908 3.01538 26.4348Q2.93895 26.3787 2.86621 26.3179Q2.79346 26.2572 2.7247 26.1919Q2.65595 26.1267 2.59144 26.0572Q2.52694 25.9878 2.46696 25.9144Q2.40697 25.841 2.35174 25.7639Q2.2965 25.6869 2.24625 25.6065Q2.19599 25.5262 2.15091 25.4428Q2.10582 25.3594 2.0661 25.2734Q2.02637 25.1873 1.99216 25.0989Q1.95794 25.0105 1.92938 24.9201Q1.90082 24.8297 1.87802 24.7377Q1.85522 24.6457 1.83828 24.5525Q1.82134 24.4592 1.81032 24.3651Q1.7993 24.2709 1.79425 24.1763Q1.7892 24.0816 1.79013 23.9868Q1.79107 23.892 1.79799 23.7975Q1.80491 23.703 1.81778 23.6091Q1.83066 23.5151 1.84944 23.4222Q1.86822 23.3293 1.89283 23.2378Q1.91744 23.1463 1.94778 23.0565Q1.97812 22.9667 2.01407 22.879Q2.05002 22.7913 2.09144 22.706L10.4279 5.54538Q10.4737 5.45109 10.526 5.36023Q10.5782 5.26937 10.6367 5.18238Q10.6952 5.09539 10.7596 5.0127Q10.8241 4.93001 10.8941 4.85202Q10.9641 4.77403 11.0395 4.70112Q11.1148 4.6282 11.195 4.56073Q11.2752 4.49325 11.3599 4.43154Q11.4447 4.36984 11.5335 4.31419Q11.6224 4.25855 11.7149 4.20925Q11.8074 4.15994 11.9031 4.11722Q11.9988 4.07449 12.0973 4.03856Q12.1958 4.00262 12.2965 3.97365Q12.3972 3.94467 12.4998 3.92281Q12.6023 3.90094 12.7061 3.88628Q12.8099 3.87162 12.9144 3.86425Q13.019 3.85687 13.1238 3.85682Q13.2286 3.85676 13.3332 3.86402Q13.4378 3.87129 13.5416 3.88583Q13.6454 3.90038 13.748 3.92214Q13.8505 3.9439 13.9513 3.97276Q14.052 4.00163 14.1505 4.03746Q14.2491 4.07329 14.3448 4.11591Q14.4406 4.15854 14.5332 4.20774Q14.6257 4.25695 14.7146 4.31249Q14.8035 4.36804 14.8883 4.42966Q14.9731 4.49128 15.0534 4.55867Q15.1337 4.62606 15.2091 4.69889Q15.2845 4.77172 15.3546 4.84964Q15.4247 4.92755 15.4892 5.01018Q15.5537 5.0928 15.6123 5.17972Q15.6709 5.26665 15.7233 5.35745Q15.7757 5.44826 15.8216 5.5425L15.8216 5.5425Z" transform="matrix(0.5 -0.8660254 0.8660254 0.5 0 22.76807)" id="Triangle" fill="#1584FF" stroke="none" />
</svg>