<svg xmlns="http://www.w3.org/2000/svg" width="45" height="53" viewBox="0 0 45 53">
    <g fill="#FFF">
        <path d="M3.337 17.138c-.915 0-1.69.318-2.328.954-.638.636-.957 1.399-.957 2.289v13.672c0 .913.319 1.686.957 2.322.637.636 1.413.954 2.328.954.913 0 1.684-.318 2.312-.954.627-.636.94-1.409.94-2.322V20.381c0-.89-.318-1.653-.956-2.29-.638-.635-1.403-.953-2.296-.953zM29.741 4.864L32.006.7c.148-.276.095-.487-.16-.636-.276-.128-.489-.063-.637.19l-2.296 4.198c-2.02-.89-4.157-1.336-6.41-1.336-2.254 0-4.39.446-6.41 1.336L13.797.254c-.15-.253-.362-.318-.638-.19-.255.15-.308.36-.159.636l2.265 4.164c-2.296 1.168-4.125 2.794-5.486 4.882-1.36 2.089-2.04 4.371-2.04 6.852h29.497c0-2.48-.681-4.763-2.042-6.852-1.36-2.088-3.178-3.714-5.453-4.882zm-13.09 6.058c-.245.245-.537.366-.877.366-.341 0-.628-.121-.861-.366-.234-.244-.35-.534-.35-.874 0-.34.116-.63.35-.874.233-.244.52-.366.86-.366.34 0 .633.122.878.366.244.244.367.535.367.874 0 .34-.123.63-.367.874zm13.441 0c-.234.245-.521.366-.86.366-.342 0-.634-.121-.878-.366-.245-.244-.367-.534-.367-.874 0-.34.122-.63.367-.874.244-.244.536-.366.877-.366.34 0 .627.122.861.366.234.244.35.535.35.874 0 .34-.116.63-.35.874zM7.865 38.918c0 .976.34 1.802 1.02 2.48.68.678 1.51 1.017 2.487 1.017h2.36l.033 7.219c0 .911.318 1.685.956 2.321.638.636 1.404.954 2.296.954.914 0 1.69-.318 2.328-.954.638-.636.956-1.41.956-2.321v-7.218h4.401v7.218c0 .911.319 1.685.957 2.321.637.636 1.413.954 2.327.954.914 0 1.69-.318 2.328-.954.638-.636.956-1.41.956-2.321v-7.218h2.392c.957 0 1.775-.34 2.456-1.017.68-.678 1.02-1.504 1.02-2.48V17.742H7.865v21.176zM41.668 17.138c-.893 0-1.658.313-2.296.938-.638.626-.956 1.395-.956 2.305v13.672c0 .913.318 1.686.956 2.322.638.636 1.404.954 2.296.954.914 0 1.69-.318 2.328-.954.638-.636.956-1.409.956-2.322V20.381c0-.91-.318-1.68-.956-2.305-.638-.625-1.414-.938-2.328-.938z"/>
    </g>
</svg>
