<svg xmlns="http://www.w3.org/2000/svg" width="45" height="54" viewBox="0 0 45 54">
    <path fill="#FFF" d="M33.228.23c-6.01 2.006-10.693 4.012-10.025 12.706 6.01-1.338 11.36-4.681 10.025-12.706zM14.143 12.3C8.357 12.3 0 17.384 0 26.913c0 13.342 9 26.683 14.143 26.683 3.857 0 7.071-2.541 9.643-2.541 2.571 0 5.143 2.54 9 2.54 5.143 0 10.928-7.623 12.214-14.611-4.5-3.176-7.714-5.082-7.714-10.8 0-3.812 3.214-7.624 7.071-10.8-1.928-2.541-5.786-5.082-9.643-5.082-3.857 0-8.005 3.015-10.928 3.176-2.572 0-5.786-3.176-9.643-3.176z"/>
</svg>
