<svg xmlns="http://www.w3.org/2000/svg" width="45" height="45" viewBox="0 0 45 45">
    <g fill="#FFF">
        <path d="M1.25 45h42.5c.69 0 1.25-.56 1.25-1.25V1.25C45 .56 44.44 0 43.75 0H1.25C.56 0 0 .56 0 1.25v42.5C0 44.44.56 45 1.25 45zm10-2.5v-2.712c1.499-.53 2.5-1.948 2.5-3.538V35h2.5v1.25c0 1.59 1.001 3.008 2.5 3.538V42.5h-7.5zm4.088-21.25h-.675c-.243 0-.475-.096-.646-.267-.17-.171-.267-.403-.267-.646V17.5h2.5v2.837c0 .243-.096.475-.267.646-.171.17-.403.267-.646.267zM27.5 42.5V28.225c.002-.499-.293-.95-.75-1.15-1.46-.64-2.526-1.938-2.872-3.494-.345-1.555.071-3.183 1.122-4.381v3.3c.001.47.267.9.688 1.113l2.5 1.25c.353.178.77.178 1.125 0l2.5-1.25c.42-.212.686-.642.687-1.113v-3.3c1.05 1.198 1.467 2.826 1.122 4.381-.346 1.556-1.413 2.854-2.872 3.494-.457.2-.752.651-.75 1.15V42.5h-2.5zm5 0V28.988c2.448-1.415 3.893-4.085 3.738-6.908-.156-2.823-1.886-5.319-4.476-6.455-.386-.174-.834-.14-1.19.09s-.571.624-.572 1.047v5l-1.25.625-1.25-.625v-5c0-.423-.216-.817-.572-1.047-.356-.23-.804-.264-1.19-.09-2.59 1.136-4.32 3.632-4.476 6.455-.155 2.823 1.29 5.493 3.738 6.908V42.5h-3.75v-3.75c0-.69-.56-1.25-1.25-1.25-.336-.005-.656-.144-.887-.388-.237-.224-.368-.536-.363-.862V35c.69 0 1.25-.56 1.25-1.25s-.56-1.25-1.25-1.25h-2.5v-8.887c1.473-.41 2.494-1.747 2.5-3.276V16.25c0-.69-.56-1.25-1.25-1.25h-5c-.69 0-1.25.56-1.25 1.25v4.087c.006 1.529 1.027 2.867 2.5 3.276V32.5h-2.5c-.69 0-1.25.56-1.25 1.25S10.56 35 11.25 35v1.25c0 .69-.56 1.25-1.25 1.25s-1.25.56-1.25 1.25v3.75H2.5v-30h16.25c.332.002.652-.129.887-.363L24.262 7.5H42.5v35h-10zm10-40V5H23.75c-.332-.002-.652.129-.887.362L18.238 10H2.5V2.5h40z"/>
        <circle cx="6.25" cy="6.25" r="1.25"/>
        <circle cx="11.25" cy="6.25" r="1.25"/>
        <circle cx="16.25" cy="6.25" r="1.25"/>
    </g>
</svg>
