<svg xmlns="http://www.w3.org/2000/svg" width="45" height="45" viewBox="0 0 45 45">
    <g fill="#FFF">
        <path d="M45 1.25C45 .56 44.44 0 43.75 0H1.25C.56 0 0 .56 0 1.25v42.5C0 44.44.56 45 1.25 45h42.5c.69 0 1.25-.56 1.25-1.25V1.25zM42.5 2.5V5H23.75c-.332-.002-.652.129-.887.362L18.238 10H2.5V2.5h40zm-40 40v-30h16.25c.332.002.652-.129.887-.363L24.262 7.5H42.5v35h-40z"/>
        <circle cx="6.25" cy="6.25" r="1.25"/>
        <circle cx="11.25" cy="6.25" r="1.25"/>
        <circle cx="16.25" cy="6.25" r="1.25"/>
        <path d="M22.5 22.5c-2.761 0-5 2.239-5 5s2.239 5 5 5 5-2.239 5-5-2.239-5-5-5zm0 7.5c-1.38 0-2.5-1.12-2.5-2.5s1.12-2.5 2.5-2.5 2.5 1.12 2.5 2.5-1.12 2.5-2.5 2.5z"/>
        <path d="M34.575 23.413l-2.5-4.326c-.241-.42-.704-.664-1.188-.625l-2.5.213c-.399-.263-.816-.497-1.25-.7l-1.05-2.263c-.2-.422-.62-.697-1.087-.712h-5c-.485-.003-.929.274-1.137.713l-1.05 2.262c-.434.203-.851.437-1.25.7l-2.5-.213c-.484-.04-.947.204-1.188.625l-2.5 4.326c-.259.408-.259.929 0 1.337L11.8 26.8v1.4l-1.325 2.05c-.259.408-.259.93 0 1.337l2.5 4.326c.241.42.704.664 1.188.625l2.5-.213c.399.263.816.497 1.25.7l1.05 2.263c.192.406.588.679 1.037.712h5c.485.003.929-.274 1.137-.712l1.05-2.263c.434-.203.851-.437 1.25-.7l2.5.212c.484.04.947-.203 1.188-.624l2.5-4.325c.259-.409.259-.93 0-1.338L33.2 28.2v-.7-.7l1.425-2.05c.244-.418.224-.939-.05-1.337zm-3.95 4.087v.913c-.034.3.041.601.212.85l1.25 1.762-1.7 2.95-2.224-.225c-.305-.023-.607.066-.85.25-.484.389-1.008.724-1.563 1-.28.12-.507.337-.637.612L24.2 37.5h-3.4l-.913-1.938c-.14-.256-.365-.455-.637-.562-.551-.249-1.075-.554-1.563-.913-.243-.184-.545-.273-.85-.25l-2.15.188-1.7-2.95 1.25-1.762c.172-.249.247-.55.213-.85v-.913-.913c.034-.3-.041-.601-.212-.85l-1.25-1.762 1.7-2.95 2.15.188c.304.023.606-.066.85-.25.482-.393 1.006-.733 1.562-1.013.28-.12.507-.337.637-.613l.9-1.887h3.425l.9 1.938c.131.275.358.492.638.612.551.249 1.075.554 1.563.912.243.185.545.274.85.25l2.15-.187 1.7 2.95-1.25 1.762c-.172.249-.247.55-.213.85.05.3.075.6.075.913z"/>
    </g>
</svg>
