<svg xmlns="http://www.w3.org/2000/svg" width="29" height="23" viewBox="0 0 29 23">
    <path fill="#FFF" d="M.003 22.193c.037.39.328.711.719.793.455.08.9-.186 1.034-.62.962-2 2.363-3.764 4.102-5.167 2.747-2.208 6.18-3.423 9.73-3.445h3.698v3.152c.006.203.094.396.246.534.135.12.31.186.49.19.183 0 .358-.068.491-.19l8.275-8.129c.283-.282.283-.734 0-1.016L20.53.2c-.21-.197-.518-.254-.787-.146-.27.108-.448.36-.458.646v3.152h-1.49c-5.5.073-10.664 2.61-14.024 6.889-2.516 3.3-3.842 7.33-3.77 11.452z"/>
</svg>
